# xmcd
#
# Track frame offsets: 
#        150
#        21675
#        37810
#        55020
#        65777
#        80300
#
# Disc length: 1269 seconds
#
# Revision: 1
# Processed by: cddbd v1.5.2PL0 Copyright (c) Steve Scherf et al.
# Submitted via: ExactAudioCopy v0.99pb4
#
DISCID=4904f306
DTITLE=Mystic Force - Frontier CD2
DYEAR=1994
DGENRE=Trance, Ambient
TTITLE0=Lost To The Wind
TTITLE1=Satellite
TTITLE2=Symphonik
TTITLE3=Ritmo Del Rio
TTITLE4=Ashes
TTITLE5=Kalimba
EXTD=
EXTT0=
EXTT1=
EXTT2=
EXTT3=
EXTT4=
EXTT5=
PLAYORDER=
